<?xml version="1.0" encoding="iso-8859-1"?>
<!-- Generator: Adobe Illustrator 19.0.0, SVG Export Plug-In . SVG Version: 6.00 Build 0)  -->
<svg version="1.1" id="Capa_1" xmlns="http://www.w3.org/2000/svg" xmlns:xlink="http://www.w3.org/1999/xlink" x="0px" y="0px"
	 viewBox="0 0 204.09 204.09" style="enable-background:new 0 0 204.09 204.09;" xml:space="preserve">
<g>
	<g>
		<path d="M151.037,52.201c4.873-6.212,5.724-14.037,2.463-22.629c-2.329-6.136-5.976-10.535-6.13-10.719
			c-1.195-1.43-3.324-1.62-4.754-0.424c-1.43,1.195-1.619,3.32-0.428,4.75c0.164,0.199,11.729,14.412,3.537,24.856
			c-11.796,15.041,0.781,34.878,1.322,35.715c0.646,0.999,1.731,1.543,2.838,1.543c0.628,0,1.263-0.175,1.829-0.541
			c1.564-1.012,2.014-3.101,1.002-4.667C152.612,79.925,142.221,63.44,151.037,52.201z"/>
	</g>
</g>
<g>
	<g>
		<path d="M173.691,52.201c4.873-6.212,5.724-14.037,2.463-22.629c-2.33-6.136-5.977-10.535-6.131-10.719
			c-1.194-1.43-3.324-1.62-4.754-0.424c-1.428,1.194-1.619,3.319-0.428,4.749c0.118,0.143,11.746,14.392,3.537,24.857
			c-11.796,15.041,0.782,34.878,1.323,35.715c0.646,0.999,1.73,1.543,2.837,1.543c0.628,0,1.263-0.175,1.83-0.541
			c1.565-1.012,2.014-3.101,1.002-4.667C175.267,79.925,164.875,63.44,173.691,52.201z"/>
	</g>
</g>
<g>
	<g>
		<path d="M31.972,53.765c4.873-6.212,5.724-14.037,2.463-22.629c-2.33-6.136-5.976-10.535-6.13-10.719
			c-1.195-1.43-3.323-1.62-4.754-0.424c-1.428,1.194-1.619,3.319-0.428,4.749c0.119,0.143,11.746,14.392,3.538,24.857
			c-11.798,15.041,0.78,34.877,1.322,35.715c0.646,0.999,1.73,1.543,2.837,1.543c0.628,0,1.263-0.175,1.829-0.541
			c1.565-1.012,2.014-3.102,1.001-4.667C33.547,81.489,23.155,65.004,31.972,53.765z"/>
	</g>
</g>
<g>
	<g>
		<path d="M54.626,53.765c4.873-6.212,5.724-14.037,2.464-22.629c-2.329-6.136-5.976-10.535-6.13-10.719
			c-1.195-1.43-3.323-1.62-4.754-0.424c-1.428,1.194-1.619,3.319-0.428,4.749c0.119,0.143,11.746,14.392,3.537,24.857
			c-11.798,15.041,0.78,34.877,1.321,35.715c0.646,0.999,1.73,1.543,2.837,1.543c0.628,0,1.263-0.175,1.83-0.541
			c1.565-1.012,2.014-3.102,1.001-4.667C56.201,81.489,45.809,65.004,54.626,53.765z"/>
	</g>
</g>
<g>
	<g>
		<path d="M192.886,159.814h-7.159c-1.681-42.103-34.652-76.291-76.241-79.901v-3.437c4.223-2.526,6.845-7.054,6.845-12.088
			c0-7.792-6.341-14.132-14.133-14.132c-0.051,0-0.254,0-0.305,0c-7.793,0-14.133,6.34-14.133,14.132
			c0,5.034,2.623,9.563,6.844,12.088v3.437c-41.588,3.61-74.56,37.797-76.241,79.901h-7.159C5.026,159.814,0,164.84,0,171.017v4.22
			c0,6.182,5.026,11.21,11.203,11.21h181.684c6.178,0,11.203-5.028,11.203-11.21v-4.22
			C204.089,164.84,199.063,159.814,192.886,159.814z M94.508,64.388c0-4.07,3.312-7.382,7.383-7.382c0.052,0,0.254,0,0.305,0
			c4.071,0,7.383,3.312,7.383,7.382c0,3.043-1.846,5.735-4.703,6.856c-1.292,0.507-2.141,1.754-2.141,3.142v5.211h-1.383v-5.211
			c0-1.388-0.85-2.634-2.141-3.142C96.354,70.122,94.508,67.431,94.508,64.388z M192.886,179.696H11.202
			c-2.456,0-4.453-2.001-4.453-4.46v-4.22c0-2.455,1.998-4.452,4.453-4.452h5.549c0.031,0.001,0.06,0.005,0.091,0.005h121.202
			c1.863,0,3.375-1.511,3.375-3.375c0-1.863-1.512-3.375-3.375-3.375H25.122c1.766-40.712,35.356-73.309,76.458-73.473h0.928
			c41.103,0.164,74.691,32.76,76.458,73.473h-19.092c-1.864,0-3.375,1.512-3.375,3.375c0,1.864,1.511,3.375,3.375,3.375
			l26.063-0.005h6.948c2.456,0,4.453,1.997,4.453,4.452v4.22h0.001C197.339,177.695,195.341,179.696,192.886,179.696z"/>
	</g>
</g>
<g>
</g>
<g>
</g>
<g>
</g>
<g>
</g>
<g>
</g>
<g>
</g>
<g>
</g>
<g>
</g>
<g>
</g>
<g>
</g>
<g>
</g>
<g>
</g>
<g>
</g>
<g>
</g>
<g>
</g>
</svg>
