<svg height="511pt" viewBox="0 -46 511.99935 511" width="511pt" xmlns="http://www.w3.org/2000/svg"><path d="m484.929688 220.527344h-10.382813c-2.007813-26.269532-11.859375-50.378906-27.210937-69.988282l60.648437-105.046874c3.996094-6.917969 5.050781-15 2.972656-22.757813-2.074219-7.753906-7.03125-14.226563-13.953125-18.21875-6.917968-3.996094-15-5.054687-22.753906-2.976563-7.757812 2.078126-14.230469 7.035157-18.222656 13.957032l-56.144532 97.238281c-5.199218-2.433594-10.582031-4.542969-16.128906-6.28125-5.316406-28.367187-20.023437-54.28125-41.871094-73.527344-23.726562-20.902343-54.226562-32.414062-85.886718-32.414062-14.574219 0-28.898438 2.402343-42.582032 7.144531-5.214843 1.808594-7.980468 7.503906-6.171874 12.722656 1.808593 5.21875 7.507812 7.984375 12.722656 6.175782 11.570312-4.011719 23.691406-6.042969 36.03125-6.042969 50 0 93.371094 34.027343 106.164062 81.164062-5.636718-.75-11.386718-1.144531-17.226562-1.144531-1.351563 0-2.695313.027344-4.039063.070312-12.539062-35.765624-46.332031-60.089843-84.898437-60.089843-38.5625 0-72.351563 24.324219-84.894532 60.089843-1.339843-.042968-2.6875-.070312-4.039062-.070312-5.839844 0-11.589844.394531-17.226562 1.144531 1.945312-7.179687 4.613281-14.148437 8-20.832031 2.496093-4.925781.527343-10.941406-4.398438-13.441406-4.921875-2.496094-10.941406-.527344-13.4375 4.398437-5.5625 10.972657-9.492188 22.605469-11.746094 34.648438-5.550781 1.742187-10.9375 3.851562-16.140625 6.285156l-56.140625-97.238281c-3.996094-6.921875-10.46875-11.878906-18.222656-13.957032-7.753906-2.078124-15.835938-1.019531-22.753906 2.976563-6.921875 3.996094-11.878906 10.464844-13.957032 18.222656-2.078124 7.753907-1.0195308 15.835938 2.972657 22.753907l60.648437 105.046874c-15.347656 19.609376-25.199218 43.71875-27.207031 69.988282h-10.382813c-14.921874 0-27.0585932 12.335937-27.0585932 27.5 0 25.394531 6.3828122 50.636718 18.4570312 72.992187 11.777344 21.804688 28.804688 40.511719 49.246094 54.125 4.679687 3.519531 10.226562 5.375 16.074218 5.375l62.214844-.007812v29.980469c0 5.523437 4.476563 10 10 10h199.992188c5.519531 0 9.996094-4.476563 9.996094-10v-30.011719l62.207031-.011719h.03125c5.125 0 10.128906-1.480469 14.480469-4.289062 21.152343-13.703126 38.726562-32.777344 50.816406-55.160157 12.078125-22.355469 18.460937-47.597656 18.460937-72.996093 0-15.160157-12.136719-27.496094-27.058593-27.496094zm-11.582032-195.03125c1.324219-2.296875 3.480469-3.941406 6.078125-4.636719 2.589844-.695313 5.285157-.351563 7.582031.976563 2.292969 1.324218 3.9375 3.480468 4.632813 6.078124.695313 2.59375.351563 5.285157-.976563 7.582032l-57.523437 99.636718c-4.945313-4.578124-10.242187-8.777343-15.847656-12.550781zm-18.878906 195.03125h-20.097656c-4.992188-44.9375-43.195313-79.996094-89.4375-79.996094-24.414063 0-47.449219 9.847656-64.222656 26.945312-3.316407-5.953124-7.078126-11.621093-11.253907-16.953124 20.328125-19.15625 47.378907-29.992188 75.476563-29.992188 57.28125 0 104.46875 44.011719 109.535156 99.996094zm-198.511719-84.757813c-7.96875-7.480469-16.871093-13.96875-26.519531-19.265625 5.070312-9.695312 15.148438-15.996094 26.5625-15.996094s21.492188 6.304688 26.5625 16c-9.589844 5.242188-18.542969 11.699219-26.605469 19.261719zm137.96875 84.757813c-4.644531-22.796875-24.847656-40-48.992187-40-23.324219 0-42.964844 16.054687-48.460938 37.691406-1.003906-10.664062-3.304687-20.957031-6.742187-30.722656 13.238281-16.96875 33.519531-26.964844 55.203125-26.964844 35.199218 0 64.402344 26.121094 69.269531 59.996094zm-20.714843 0h-56.554688c4.128906-11.640625 15.242188-20 28.277344-20s24.148437 8.363281 28.277344 20zm-117.210938-160.019532c28.410156 0 53.484375 16.96875 64.34375 42.390626-6.65625 1.289062-13.183594 3.089843-19.527344 5.382812-8.257812-16.78125-25.375-27.773438-44.816406-27.773438-19.433594 0-36.535156 10.976563-44.800781 27.742188-6.300781-2.28125-12.828125-4.082031-19.535157-5.375 10.863282-25.40625 35.933594-42.367188 64.335938-42.367188zm-235.640625-32.59375c.695313-2.597656 2.339844-4.753906 4.632813-6.078124 2.296874-1.324219 4.988281-1.671876 7.582031-.976563 2.597656.695313 4.753906 2.339844 6.078125 4.636719l56.054687 97.085937c-5.609375 3.773438-10.902343 7.972657-15.847656 12.550781l-57.527344-99.636718c-1.324219-2.296875-1.667969-4.988282-.972656-7.582032zm146.707031 92.617188c57.277344 0 104.464844 44.011719 109.535156 99.996094h-20.097656c-4.992187-44.933594-43.195312-79.996094-89.4375-79.996094-46.242187 0-84.445312 35.0625-89.4375 79.996094h-20.097656c5.066406-55.984375 52.253906-99.996094 109.535156-99.996094zm48.988282 99.996094c-4.644532-22.796875-24.84375-40-48.988282-40-24.148437 0-44.347656 17.203125-48.992187 40h-20.28125c4.871093-33.875 34.070312-60 69.273437-60 35.199219 0 64.402344 26.125 69.269532 60zm-20.710938 0h-56.558594c4.128906-11.640625 15.246094-20 28.28125-20s24.148438 8.363281 28.277344 20zm150.652344 179.96875h-179.992188v-19.988282l179.992188-.027343zm129.9375-88.980469c-10.5 19.4375-25.75 35.996094-44.082032 47.871094-1.117187.71875-2.335937 1.085937-3.632812 1.085937-.003906 0-.007812 0-.007812 0l-271.925782.039063c-.09375-.003907-.1875-.015625-.28125-.015625-.097656 0-.1875.011718-.285156.015625l-71.929688.007812c-1.902343 0-3.304687-.777343-4.148437-1.429687-.195313-.152344-.394531-.296875-.601563-.429688-17.835937-11.820312-32.695312-28.125-42.972656-47.144531-10.503906-19.449219-16.058594-41.402344-16.058594-63.492187 0-4.132813 3.167969-7.5 7.0625-7.5h19.992188.007812.011719 39.976563.011718.007813 39.980469.007812.011719 79.976563.011718.007813 39.980469.011718.007813 39.980469.011718.007813 17.859375.007812.011719 79.976563.007812.011719 39.980469.007812.011719 39.980469.007812.011719 19.988281c3.894531 0 7.0625 3.367187 7.0625 7.5-.011719 22.089843-5.5625 44.042968-16.066406 63.492187zm0 0"/><path d="m318.222656 320.472656h-.007812c-5.519532 0-9.996094 4.476563-9.996094 10 0 5.523438 4.480469 10 10.003906 10 5.523438 0 10-4.476562 10-10 0-5.523437-4.476562-10-10-10zm0 0"/><path d="m418.210938 320.472656h-54.992188c-5.523438 0-10 4.476563-10 10 0 5.523438 4.476562 10 10 10h54.992188c5.523437 0 10-4.476562 10-10 0-5.523437-4.476563-10-10-10zm0 0"/><path d="m177.089844 50.109375c2.558594 0 5.117187-.976563 7.070312-2.929687l.003906-.003907c3.90625-3.90625 3.902344-10.234375-.003906-14.136719-3.902344-3.90625-10.238281-3.902343-14.144531 0-3.902344 3.90625-3.902344 10.238282 0 14.140626 1.953125 1.953124 4.515625 2.929687 7.074219 2.929687zm0 0"/></svg>