<svg height="512pt" viewBox="0 -66 512 512" width="512pt" xmlns="http://www.w3.org/2000/svg"><path d="m120 260c-5.441406 0-9.871094 4.351562-10 9.761719v.238281c0 5.519531 4.480469 10 10 10s10-4.480469 10-10c0-.078125 0-.171875 0-.25-.140625-5.410156-4.558594-9.75-10-9.75zm0 0"/><path d="m180 210c0-20.613281-31.101562-30-60-30s-60 9.386719-60 30 31.101562 30 60 30 60-9.386719 60-30zm-99.75 0c2.570312-3.269531 16.273438-10 39.75-10s37.179688 6.730469 39.75 10c-2.570312 3.269531-16.273438 10-39.75 10s-37.179688-6.730469-39.75-10zm0 0"/><path d="m392 140c-5.378906 0-10.722656.226562-16 .625v-70.625c0-39.253906-52.710938-70-120-70s-120 30.746094-120 70v70.785156c-5.839844-.539062-11.25-.785156-16-.785156-67.289062 0-120 30.746094-120 70v110c0 17.507812 13.523438 33.296875 38.082031 44.457031 22.046875 10.023438 51.140625 15.542969 81.917969 15.542969s59.871094-5.519531 81.917969-15.542969c24.558593-11.160156 38.082031-26.949219 38.082031-44.457031v-80.523438c11.246094.714844 21.234375.683594 32-.003906v80.527344c0 17.507812 13.523438 33.296875 38.082031 44.457031 22.046875 10.023438 51.140625 15.542969 81.917969 15.542969s59.871094-5.519531 81.917969-15.542969c24.558593-11.160156 38.082031-26.949219 38.082031-44.457031v-110c0-39.253906-52.710938-70-120-70zm100 70c0 34.15625-62.746094 50-100 50-38.085938 0-100-16.296875-100-50 0-28.460938 46.515625-44.589844 75.320312-48.398438 7.988282-1.0625 16.292969-1.601562 24.679688-1.601562 38.085938 0 100 16.296875 100 50zm-236-190c38.085938 0 100 16.296875 100 50 0 34.15625-62.746094 50-100 50-38.085938 0-100-16.296875-100-50 0-34.15625 62.75-50 100-50zm-62.355469 326.25c-19.507812 8.867188-45.660156 13.75-73.644531 13.75s-54.136719-4.882812-73.644531-13.75c-16.503907-7.503906-26.355469-17.316406-26.355469-26.25v-70.730469c15.539062 13.386719 37.804688 22.183594 58.140625 26.464844 5.402344 1.144531 10.707031-2.320313 11.84375-7.722656 1.140625-5.40625-2.320313-10.707031-7.722656-11.847657-29.988281-6.3125-62.261719-23.449218-62.261719-46.164062 0-34.15625 62.75-50 100-50 35.261719 0 100.273438 15.414062 100 50.394531v.269531c-.425781 21.976563-32.117188 38.90625-62.335938 45.519532-5.394531 1.179687-8.8125 6.507812-7.632812 11.902344 1.1875 5.425781 6.546875 8.8125 11.90625 7.632812 20.53125-4.492188 42.632812-13.335938 58.0625-26.515625v70.796875c0 8.933594-9.851562 18.746094-26.355469 26.25zm46.355469-126.820312v-7.984376c.882812-40.324218-44.695312-60.425781-84-67.847656v-34.402344c21.324219 18.707032 57.792969 30.804688 100 30.804688s78.675781-12.097656 100-30.804688v33.941407c-38.675781 6.9375-84 28.886719-84 66.863281v9.425781c-10.621094.730469-21.515625.726563-32 .003907zm225.644531 126.820312c-19.507812 8.867188-45.660156 13.75-73.644531 13.75s-54.136719-4.882812-73.644531-13.75c-16.5-7.503906-26.355469-17.316406-26.355469-26.25v-70.804688c21.324219 18.707032 57.792969 30.804688 100 30.804688s78.675781-12.097656 100-30.804688v70.804688c0 8.933594-9.855469 18.746094-26.355469 26.25zm0 0"/><path d="m332 210c0 20.613281 31.101562 30 60 30s60-9.386719 60-30-31.101562-30-60-30-60 9.386719-60 30zm60-10c23.476562 0 37.179688 6.730469 39.75 10-2.570312 3.269531-16.273438 10-39.75 10s-37.179688-6.730469-39.75-10c2.570312-3.269531 16.273438-10 39.75-10zm0 0"/><path d="m256 100c28.898438 0 60-9.386719 60-30s-31.101562-30-60-30-60 9.386719-60 30 31.101562 30 60 30zm0-40c23.476562 0 37.179688 6.730469 39.75 10-2.570312 3.269531-16.273438 10-39.75 10s-37.179688-6.730469-39.75-10c2.570312-3.269531 16.273438-10 39.75-10zm0 0"/></svg>