<?xml version='1.0' encoding='iso-8859-1'?>
<svg version="1.1" xmlns="http://www.w3.org/2000/svg" viewBox="0 0 409.222 409.222" xmlns:xlink="http://www.w3.org/1999/xlink" enable-background="new 0 0 409.222 409.222">
  <path d="m201.36,289.989l1.344,1.345c3.904,3.906 3.902,10.238-0.005,14.142-1.952,1.951-4.511,2.927-7.068,2.927-2.561,0-5.121-0.978-7.073-2.932l-1.344-1.345c-3.904-3.906-3.902-10.238 0.005-14.142 3.906-3.905 10.239-3.901 14.141,0.005zm-60.825-124.419v-54.074c0-20.422 16.614-37.036 37.037-37.036h54.075c20.423,0 37.038,16.614 37.038,37.036v54.074c0,20.424-16.615,37.039-37.038,37.039h-54.075c-20.423,2.84217e-14-37.037-16.615-37.037-37.039zm20,0c0,9.396 7.643,17.039 17.037,17.039h54.075c9.395,0 17.038-7.644 17.038-17.039v-54.074c0-9.394-7.644-17.036-17.038-17.036h-54.075c-9.395,0-17.037,7.643-17.037,17.036v54.074zm58.207,121.827c1.952,1.954 4.513,2.932 7.073,2.932 2.558,0 5.116-0.976 7.068-2.927 3.907-3.903 3.909-10.235 0.005-14.142l-1.344-1.345c-3.902-3.906-10.235-3.91-14.142-0.005-3.907,3.903-3.909,10.235-0.005,14.142l1.345,1.345zm109.013-140.269c-3.907,3.903-3.909,10.235-0.005,14.142l1.344,1.345c1.952,1.954 4.513,2.932 7.073,2.932 2.558,0 5.116-0.976 7.068-2.927 3.907-3.903 3.909-10.235 0.005-14.142l-1.344-1.345c-3.901-3.906-10.234-3.909-14.141-0.005zm31.526-2.584c1.953,1.952 4.512,2.929 7.071,2.929s5.118-0.977 7.071-2.929c3.905-3.905 3.905-10.237 0-14.143l-1.345-1.345c-3.906-3.904-10.236-3.904-14.143,0-3.905,3.905-3.905,10.237 0,14.143l1.346,1.345zm-78.209-6.01c0-35.331 28.743-64.074 64.074-64.074s64.075,28.743 64.075,64.074-28.744,64.075-64.075,64.075-64.074-28.744-64.074-64.075zm20,0c0,24.303 19.771,44.075 44.074,44.075s44.075-19.772 44.075-44.075-19.772-44.074-44.075-44.074-44.074,19.771-44.074,44.074zm30.713-6.466c2.558,0 5.116-0.976 7.068-2.927l1.346-1.345c3.907-3.903 3.909-10.235 0.005-14.142-3.902-3.907-10.235-3.91-14.142-0.005l-1.346,1.345c-3.907,3.903-3.909,10.235-0.005,14.142 1.953,1.955 4.513,2.932 7.074,2.932zm-155.741,6.466c0-15.751 12.814-28.565 28.566-28.565 15.751,0 28.565,12.814 28.565,28.565 0,15.752-12.814,28.566-28.565,28.566-15.751,0.001-28.566-12.814-28.566-28.566zm20,0c0,4.724 3.843,8.566 8.566,8.566 4.723,0 8.565-3.843 8.565-8.566 0-4.723-3.843-8.565-8.565-8.565-4.723,0-8.566,3.843-8.566,8.565zm-113.31,64.062c0.177,0.01 0.353,0.014 0.528,0.014 5.284,0 9.7-4.142 9.978-9.48l9.504-182.608c0.287-5.516-3.951-10.219-9.467-10.506-5.494-0.297-10.22,3.95-10.506,9.467l-9.504,182.607c-0.287,5.515 3.951,10.219 9.467,10.506zm267.835,186.626h-48.653c-5.522,0-10,4.478-10,10s4.478,10 10,10h48.653c5.522,0 10-4.478 10-10s-4.478-10-10-10zm48.652-28.409h-389.221c-5.522,0-10,4.478-10,10s4.478,10 10,10h389.221c5.522,0 10-4.478 10-10s-4.477-10-10-10zm10-106.46v54.075c0,20.423-16.616,37.038-37.04,37.038h-54.072c-20.423,0-37.037-16.615-37.037-37.038v-54.075c0-20.422 16.614-37.036 37.037-37.036h54.072c20.424-0.001 37.04,16.614 37.04,37.036zm-20,0c0-9.394-7.645-17.036-17.04-17.036h-54.072c-9.395,0-17.037,7.643-17.037,17.036v54.075c0,9.395 7.643,17.038 17.037,17.038h54.072c9.396,0 17.04-7.644 17.04-17.038v-54.075zm-197.971,20.572c2.56,0 5.118-0.977 7.071-2.929l1.344-1.344c3.905-3.905 3.905-10.237 0-14.143-3.906-3.904-10.236-3.904-14.143,0l-1.344,1.344c-3.905,3.905-3.905,10.237 0,14.143 1.953,1.952 4.512,2.929 7.072,2.929zm182.461,6.467c0,15.751-12.814,28.565-28.565,28.565s-28.565-12.814-28.565-28.565c0-15.752 12.814-28.566 28.565-28.566s28.565,12.814 28.565,28.566zm-20,0c0-4.724-3.843-8.566-8.565-8.566s-8.565,3.843-8.565,8.566c0,4.723 3.843,8.565 8.565,8.565s8.565-3.843 8.565-8.565zm-246.406,107.83h-48.652c-5.522,0-10,4.478-10,10s4.478,10 10,10h48.652c5.522,0 10-4.478 10-10s-4.477-10-10-10zm-72.398-196.093c0.277,5.339 4.693,9.48 9.978,9.48 0.175,0 0.352-0.004 0.528-0.014 5.516-0.287 9.754-4.99 9.467-10.506l-9.503-182.608c-0.286-5.517-5.005-9.764-10.506-9.467-5.516,0.287-9.754,4.99-9.467,10.506l9.503,182.609zm105.628,88.263c0-35.331 28.744-64.075 64.076-64.075 35.331,0 64.074,28.744 64.074,64.075s-28.743,64.074-64.074,64.074c-35.332,0-64.076-28.743-64.076-64.074zm20,0c0,24.303 19.772,44.074 44.076,44.074 24.303,0 44.074-19.771 44.074-44.074s-19.771-44.075-44.074-44.075c-24.304-0.001-44.076,19.772-44.076,44.075zm-160.535,27.036v-54.075c0-20.422 16.614-37.036 37.036-37.036h54.074c20.424,0 37.039,16.614 37.039,37.036v54.075c0,20.423-16.615,37.038-37.039,37.038h-54.073c-20.422,0-37.037-16.615-37.037-37.038zm20,0c0,9.395 7.643,17.038 17.036,17.038h54.074c9.396,0 17.039-7.644 17.039-17.038v-54.075c0-9.394-7.644-17.036-17.039-17.036h-54.073c-9.394,0-17.036,7.643-17.036,17.036v54.075zm15.507-27.036c0-15.752 12.814-28.566 28.566-28.566s28.566,12.814 28.566,28.566c0,15.751-12.814,28.565-28.566,28.565s-28.566-12.814-28.566-28.565zm20,0c0,4.723 3.843,8.565 8.566,8.565s8.566-3.843 8.566-8.565c0-4.724-3.843-8.566-8.566-8.566s-8.566,3.842-8.566,8.566z"/>
</svg>
