<svg height="512pt" viewBox="-38 0 512 512.00131" width="512pt" xmlns="http://www.w3.org/2000/svg"><path d="m428.980469 32.292969c-7.019531-4.398438-16.273438-2.273438-20.675781 4.746093l-125.480469 200.273438c-13.003907-5.554688-26.375-10.007812-39.972657-13.355469l101.570313-202.222656c3.71875-7.402344.730469-16.417969-6.671875-20.136719s-16.417969-.730468-20.136719 6.671875l-105.496093 210.039063c-.269532-.039063-.539063-.074219-.808594-.097656-64.84375-7.75-132.480469 8.691406-187.289063 49.785156-26.523437 19.898437-31.90625 57.476562-12.003906 84.007812 8.273437 11.027344 19.828125 18.707032 33.003906 22.082032v47.914062h-15c-8.285156 0-15 6.71875-15 15 0 41.355469 33.644531 75 75 75h179.996094c41.355469 0 75-33.644531 75-75 0-8.28125-6.714844-15-15-15h-15v-47.890625c13.066406-3.332031 24.65625-10.976563 33.007813-22.109375 19.894531-26.519531 14.519531-64.101562-12.011719-84.003906-8.445313-6.332032-17.199219-12.078125-26.207031-17.246094l123.921874-197.78125c4.398438-7.023438 2.273438-16.277344-4.746093-20.675781zm-233.960938 214.5v175.207031h-30v-175.207031c9.988281-.640625 20.007813-.640625 30 0zm-159.007812 87.203125c-9.945313-13.253906-7.253907-32.050782 6.007812-42 28.042969-21.023438 59.925781-34.792969 93-41.304688v61.527344c-20.566406 5.613281-40.078125 15.089844-57.015625 27.796875-13.207031 9.925781-32.039062 7.25-41.992187-6.019531zm39.007812 40.132812c7.503907-1.933594 14.625-5.332031 20.996094-10.121094 11.734375-8.804687 24.988281-15.722656 39.003906-20.445312v78.4375h-60zm194.996094 107.871094h-179.996094c-19.558593 0-36.238281-12.546875-42.429687-30.007812h264.855468c-6.1875 17.460937-22.871093 30.007812-42.429687 30.007812zm-44.996094-60v-78.472656c14.007813 4.6875 27.078125 11.535156 39.011719 20.488281 6.371094 4.769531 13.46875 8.160156 20.984375 10.09375v47.890625zm92.992188-130.003906c13.253906 9.941406 15.964843 28.734375 6.011719 42-10.089844 13.449218-28.898438 15.820312-42.003907 6.011718-16.925781-12.699218-36.4375-22.175781-57-27.789062v-61.527344c14.175781 2.792969 28.132813 6.921875 41.664063 12.382813l-9.378906 14.964843c-4.394532 7.019532-2.269532 16.277344 4.75 20.671876 7.042968 4.414062 16.289062 2.25 20.671874-4.746094l11.140626-17.777344c8.304687 4.714844 16.375 9.980469 24.144531 15.808594zm0 0"/></svg>